<svg width="14" height="14" viewBox="0 0 14 14" fill="none" xmlns="http://www.w3.org/2000/svg">
<g filter="url(#filter0_i_26_62)">
<rect width="14" height="14" rx="3" fill="white"/>
</g>
<path fill-rule="evenodd" clip-rule="evenodd" d="M9.2 0.5H4.8C3.95167 0.5 3.34549 0.500389 2.87032 0.539212C2.40099 0.577558 2.10366 0.650894 1.86502 0.772484C1.39462 1.01217 1.01217 1.39462 0.772484 1.86502C0.650894 2.10366 0.577558 2.40099 0.539212 2.87032C0.500389 3.34549 0.5 3.95167 0.5 4.8V9.2C0.5 10.0483 0.500389 10.6545 0.539212 11.1297C0.577558 11.599 0.650894 11.8963 0.772484 12.135C1.01217 12.6054 1.39462 12.9878 1.86502 13.2275C2.10366 13.3491 2.40099 13.4224 2.87032 13.4608C3.34549 13.4996 3.95167 13.5 4.8 13.5H9.2C10.0483 13.5 10.6545 13.4996 11.1297 13.4608C11.599 13.4224 11.8963 13.3491 12.135 13.2275C12.6054 12.9878 12.9878 12.6054 13.2275 12.135C13.3491 11.8963 13.4224 11.599 13.4608 11.1297C13.4996 10.6545 13.5 10.0483 13.5 9.2V4.8C13.5 3.95167 13.4996 3.34549 13.4608 2.87032C13.4224 2.40099 13.3491 2.10366 13.2275 1.86502C12.9878 1.39462 12.6054 1.01217 12.135 0.772484C11.8963 0.650894 11.599 0.577558 11.1297 0.539212C10.6545 0.500389 10.0483 0.5 9.2 0.5ZM0.32698 1.63803C0 2.27976 0 3.11984 0 4.8V9.2C0 10.8802 0 11.7202 0.32698 12.362C0.614601 12.9265 1.07354 13.3854 1.63803 13.673C2.27976 14 3.11984 14 4.8 14H9.2C10.8802 14 11.7202 14 12.362 13.673C12.9265 13.3854 13.3854 12.9265 13.673 12.362C14 11.7202 14 10.8802 14 9.2V4.8C14 3.11984 14 2.27976 13.673 1.63803C13.3854 1.07354 12.9265 0.614601 12.362 0.32698C11.7202 0 10.8802 0 9.2 0H4.8C3.11984 0 2.27976 0 1.63803 0.32698C1.07354 0.614601 0.614601 1.07354 0.32698 1.63803Z" fill="url(#paint0_linear_26_62)"/>
<defs>
<filter id="filter0_i_26_62" x="0" y="0" width="14" height="15" filterUnits="userSpaceOnUse" color-interpolation-filters="sRGB">
<feFlood flood-opacity="0" result="BackgroundImageFix"/>
<feBlend mode="normal" in="SourceGraphic" in2="BackgroundImageFix" result="shape"/>
<feColorMatrix in="SourceAlpha" type="matrix" values="0 0 0 0 0 0 0 0 0 0 0 0 0 0 0 0 0 0 127 0" result="hardAlpha"/>
<feMorphology radius="1" operator="erode" in="SourceAlpha" result="effect1_innerShadow_26_62"/>
<feOffset dy="1"/>
<feGaussianBlur stdDeviation="1"/>
<feComposite in2="hardAlpha" operator="arithmetic" k2="-1" k3="1"/>
<feColorMatrix type="matrix" values="0 0 0 0 0 0 0 0 0 0 0 0 0 0 0 0 0 0 0.1 0"/>
<feBlend mode="normal" in2="shape" result="effect1_innerShadow_26_62"/>
</filter>
<linearGradient id="paint0_linear_26_62" x1="7" y1="0" x2="7" y2="14" gradientUnits="userSpaceOnUse">
<stop stop-color="#BBBBBB"/>
<stop offset="1" stop-color="#D0D0D0"/>
</linearGradient>
</defs>
</svg>
