<svg width="16" height="16" viewBox="0 0 16 16" fill="none" xmlns="http://www.w3.org/2000/svg">
<g clip-path="url(#clip0_301_43)">
<path d="M0 4.8C0 3.11984 0 2.27976 0.32698 1.63803C0.614601 1.07354 1.07354 0.614601 1.63803 0.32698C2.27976 0 3.11984 0 4.8 0H11.2C12.8802 0 13.7202 0 14.362 0.32698C14.9265 0.614601 15.3854 1.07354 15.673 1.63803C16 2.27976 16 3.11984 16 4.8V11.2C16 12.8802 16 13.7202 15.673 14.362C15.3854 14.9265 14.9265 15.3854 14.362 15.673C13.7202 16 12.8802 16 11.2 16H4.8C3.11984 16 2.27976 16 1.63803 15.673C1.07354 15.3854 0.614601 14.9265 0.32698 14.362C0 13.7202 0 12.8802 0 11.2V4.8Z" fill="#0080FF"/>
<path d="M4.5 8H11.5" stroke="white" stroke-width="3" stroke-linecap="round"/>
</g>
<defs>
<clipPath id="clip0_301_43">
<rect width="16" height="16" fill="white"/>
</clipPath>
</defs>
</svg>
