<svg width="16" height="16" viewBox="0 0 16 16" fill="none" xmlns="http://www.w3.org/2000/svg">
<g clip-path="url(#clip0_31_14)">
<path d="M0 4.8C0 3.11984 0 2.27976 0.32698 1.63803C0.614601 1.07354 1.07354 0.614601 1.63803 0.32698C2.27976 0 3.11984 0 4.8 0H11.2C12.8802 0 13.7202 0 14.362 0.32698C14.9265 0.614601 15.3854 1.07354 15.673 1.63803C16 2.27976 16 3.11984 16 4.8V11.2C16 12.8802 16 13.7202 15.673 14.362C15.3854 14.9265 14.9265 15.3854 14.362 15.673C13.7202 16 12.8802 16 11.2 16H4.8C3.11984 16 2.27976 16 1.63803 15.673C1.07354 15.3854 0.614601 14.9265 0.32698 14.362C0 13.7202 0 12.8802 0 11.2V4.8Z" fill="white"/>
<path fill-rule="evenodd" clip-rule="evenodd" d="M11.2 1H4.8C3.94342 1 3.36113 1.00078 2.91104 1.03755C2.47262 1.07337 2.24842 1.1383 2.09202 1.21799C1.71569 1.40973 1.40973 1.71569 1.21799 2.09202C1.1383 2.24842 1.07337 2.47262 1.03755 2.91104C1.00078 3.36113 1 3.94342 1 4.8V11.2C1 12.0566 1.00078 12.6389 1.03755 13.089C1.07337 13.5274 1.1383 13.7516 1.21799 13.908C1.40973 14.2843 1.71569 14.5903 2.09202 14.782C2.24842 14.8617 2.47262 14.9266 2.91104 14.9624C3.36113 14.9992 3.94342 15 4.8 15H11.2C12.0566 15 12.6389 14.9992 13.089 14.9624C13.5274 14.9266 13.7516 14.8617 13.908 14.782C14.2843 14.5903 14.5903 14.2843 14.782 13.908C14.8617 13.7516 14.9266 13.5274 14.9624 13.089C14.9992 12.6389 15 12.0566 15 11.2V4.8C15 3.94342 14.9992 3.36113 14.9624 2.91104C14.9266 2.47262 14.8617 2.24842 14.782 2.09202C14.5903 1.71569 14.2843 1.40973 13.908 1.21799C13.7516 1.1383 13.5274 1.07337 13.089 1.03755C12.6389 1.00078 12.0566 1 11.2 1ZM0.32698 1.63803C0 2.27976 0 3.11984 0 4.8V11.2C0 12.8802 0 13.7202 0.32698 14.362C0.614601 14.9265 1.07354 15.3854 1.63803 15.673C2.27976 16 3.11984 16 4.8 16H11.2C12.8802 16 13.7202 16 14.362 15.673C14.9265 15.3854 15.3854 14.9265 15.673 14.362C16 13.7202 16 12.8802 16 11.2V4.8C16 3.11984 16 2.27976 15.673 1.63803C15.3854 1.07354 14.9265 0.614601 14.362 0.32698C13.7202 0 12.8802 0 11.2 0H4.8C3.11984 0 2.27976 0 1.63803 0.32698C1.07354 0.614601 0.614601 1.07354 0.32698 1.63803Z" fill="#BBBBBB"/>
</g>
<defs>
<clipPath id="clip0_31_14">
<rect width="16" height="16" fill="white"/>
</clipPath>
</defs>
</svg>
