<svg width="14" height="14" viewBox="0 0 14 14" fill="none" xmlns="http://www.w3.org/2000/svg">
<rect width="14" height="14" rx="3" fill="#E0E0E0"/>
<path fill-rule="evenodd" clip-rule="evenodd" d="M9.2 1H4.8C3.94342 1 3.36113 1.00078 2.91104 1.03755C2.47262 1.07337 2.24842 1.1383 2.09202 1.21799C1.71569 1.40973 1.40973 1.71569 1.21799 2.09202C1.1383 2.24842 1.07337 2.47262 1.03755 2.91104C1.00078 3.36113 1 3.94342 1 4.8V9.2C1 10.0566 1.00078 10.6389 1.03755 11.089C1.07337 11.5274 1.1383 11.7516 1.21799 11.908C1.40973 12.2843 1.71569 12.5903 2.09202 12.782C2.24842 12.8617 2.47262 12.9266 2.91104 12.9624C3.36113 12.9992 3.94342 13 4.8 13H9.2C10.0566 13 10.6389 12.9992 11.089 12.9624C11.5274 12.9266 11.7516 12.8617 11.908 12.782C12.2843 12.5903 12.5903 12.2843 12.782 11.908C12.8617 11.7516 12.9266 11.5274 12.9624 11.089C12.9992 10.6389 13 10.0566 13 9.2V4.8C13 3.94342 12.9992 3.36113 12.9624 2.91104C12.9266 2.47262 12.8617 2.24842 12.782 2.09202C12.5903 1.71569 12.2843 1.40973 11.908 1.21799C11.7516 1.1383 11.5274 1.07337 11.089 1.03755C10.6389 1.00078 10.0566 1 9.2 1ZM0.32698 1.63803C0 2.27976 0 3.11984 0 4.8V9.2C0 10.8802 0 11.7202 0.32698 12.362C0.614601 12.9265 1.07354 13.3854 1.63803 13.673C2.27976 14 3.11984 14 4.8 14H9.2C10.8802 14 11.7202 14 12.362 13.673C12.9265 13.3854 13.3854 12.9265 13.673 12.362C14 11.7202 14 10.8802 14 9.2V4.8C14 3.11984 14 2.27976 13.673 1.63803C13.3854 1.07354 12.9265 0.614601 12.362 0.32698C11.7202 0 10.8802 0 9.2 0H4.8C3.11984 0 2.27976 0 1.63803 0.32698C1.07354 0.614601 0.614601 1.07354 0.32698 1.63803Z" fill="#BBBBBB"/>
</svg>
