<svg width="16" height="16" viewBox="0 0 16 16" fill="none" xmlns="http://www.w3.org/2000/svg">
<g clip-path="url(#clip0_301_40)">
<path d="M0 4.8C0 3.11984 0 2.27976 0.32698 1.63803C0.614601 1.07354 1.07354 0.614601 1.63803 0.32698C2.27976 0 3.11984 0 4.8 0H11.2C12.8802 0 13.7202 0 14.362 0.32698C14.9265 0.614601 15.3854 1.07354 15.673 1.63803C16 2.27976 16 3.11984 16 4.8V11.2C16 12.8802 16 13.7202 15.673 14.362C15.3854 14.9265 14.9265 15.3854 14.362 15.673C13.7202 16 12.8802 16 11.2 16H4.8C3.11984 16 2.27976 16 1.63803 15.673C1.07354 15.3854 0.614601 14.9265 0.32698 14.362C0 13.7202 0 12.8802 0 11.2V4.8Z" fill="#0080FF"/>
<path d="M4.5 7.25C4.08579 6.69772 3.30228 6.58579 2.75 7C2.19772 7.41421 2.08579 8.19772 2.5 8.75L4.5 7.25ZM6.5 12L5.5 12.75C5.73607 13.0648 6.10655 13.25 6.5 13.25C6.89345 13.25 7.26393 13.0648 7.5 12.75L6.5 12ZM13.5 4.75C13.9142 4.19772 13.8023 3.41421 13.25 3C12.6977 2.58579 11.9142 2.69772 11.5 3.25L13.5 4.75ZM2.5 8.75L5.5 12.75L7.5 11.25L4.5 7.25L2.5 8.75ZM7.5 12.75L13.5 4.75L11.5 3.25L5.5 11.25L7.5 12.75Z" fill="white"/>
</g>
<defs>
<clipPath id="clip0_301_40">
<rect width="16" height="16" fill="white"/>
</clipPath>
</defs>
</svg>
