<svg width="14" height="14" viewBox="0 0 14 14" fill="none" xmlns="http://www.w3.org/2000/svg">
<rect width="14" height="14" rx="3" fill="#0060E0"/>
<path d="M3.75926 6.34921C3.39983 5.92988 2.76853 5.88132 2.34921 6.24074C1.92988 6.60017 1.88132 7.23147 2.24074 7.65079L3.75926 6.34921ZM6 10.5L5.24074 11.1508C5.44639 11.3907 5.75334 11.5193 6.06859 11.4976C6.38384 11.476 6.6703 11.3066 6.84118 11.0408L6 10.5ZM11.3412 4.04076C11.6398 3.57619 11.5053 2.95747 11.0408 2.65882C10.5762 2.36017 9.95747 2.49467 9.65882 2.95924L11.3412 4.04076ZM2.24074 7.65079L5.24074 11.1508L6.75926 9.84921L3.75926 6.34921L2.24074 7.65079ZM6.84118 11.0408L11.3412 4.04076L9.65882 2.95924L5.15882 9.95924L6.84118 11.0408Z" fill="white"/>
</svg>
